<?xml version="1.0" encoding="UTF-8"?>
<svg width="700px" height="771px" viewBox="0 0 700 771" version="1.1" xmlns="http://www.w3.org/2000/svg" xmlns:xlink="http://www.w3.org/1999/xlink">
    <!-- Generator: Sketch 47.1 (45422) - http://www.bohemiancoding.com/sketch -->
    <title>Group</title>
    <desc>Created with Sketch.</desc>
    <defs></defs>
    <g id="Page-1" stroke="none" stroke-width="1" fill="none" fill-rule="evenodd">
        <g id="noun_1411953_cc" fill="#FFFFFF">
            <g id="Group">
                <path d="M280.026228,0.00936730543 C326.656675,0.00936730543 326.656675,70.0206081 280.026228,70.0206081 L105.016861,70.0112408 C84.0059951,70.0112408 70.0112408,84.0059951 70.0112408,105.016861 L70.0112408,665.041216 C70.0112408,686.052082 84.0059951,700.046837 105.016861,700.046837 L280.026228,700.056204 C326.656675,700.056204 326.656675,770.067445 280.026228,770.067445 L105.016861,770.058077 C45.5063698,770.058077 0,724.551708 0,665.041216 L0,105.016861 C0,45.5063698 45.5063698,0 105.016861,0 L280.026228,0.00936730543 Z" id="Shape"></path>
                <path d="M690.342308,360.519484 L550.338561,220.515737 C517.843379,188.029922 468.843004,237.020929 501.338186,269.516112 L581.831442,350.018735 L245.816829,350.028102 C199.177015,350.028102 199.177015,420.039343 245.816829,420.039343 L581.831442,420.039343 L501.338186,500.541966 C468.561985,533.299433 518.199336,581.672198 550.338561,549.54234 L690.342308,409.529226 C703.428434,396.4431 703.006905,373.230917 690.342308,360.519484 Z" id="Shape"></path>
            </g>
        </g>
    </g>
</svg>