<?xml version="1.0" encoding="UTF-8"?>
<svg width="98px" height="68px" viewBox="0 0 98 68" version="1.1" xmlns="http://www.w3.org/2000/svg" xmlns:xlink="http://www.w3.org/1999/xlink">
    <!-- Generator: Sketch 47.1 (45422) - http://www.bohemiancoding.com/sketch -->
    <title>Group</title>
    <desc>Created with Sketch.</desc>
    <defs></defs>
    <g id="Page-1" stroke="none" stroke-width="1" fill="none" fill-rule="evenodd">
        <g id="noun_1261851_cc" transform="translate(0.000000, -1.000000)" fill-rule="nonzero" fill="#FFFFFF">
            <g id="Group" transform="translate(0.000000, 0.637820)">
                <path d="M84.377593,0.41241 C83.3863026,0.488042535 82.4968474,1.04980374 82.002593,1.91241 L52.502593,53.0061 C52.2147446,53.5196283 52.0843306,54.1064915 52.127593,54.6936 L52.815093,65.5061 C52.880138,66.5045749 53.4386535,67.4049134 54.3043051,67.9067404 C55.1699567,68.4085674 56.2288053,68.4458313 57.127593,68.0061 L66.846393,63.1936 C67.370269,62.9285905 67.804884,62.5157063 68.096393,62.0061 L97.596393,10.91241 C98.4224198,9.47959252 97.9331841,7.64853674 96.502593,6.81866 L86.096393,0.81866 C85.5771964,0.513859465 84.9783095,0.372308492 84.377593,0.41241 L84.377593,0.41241 Z M85.721393,7.50616 L90.908793,10.50616 L89.408793,13.09991 L84.221393,10.09991 L85.721393,7.50616 Z M81.221393,15.31866 L86.408793,18.31866 L63.377593,58.2248 L58.502593,60.6311 L58.158793,55.2561 L81.221393,15.31866 Z M3.0025933,62.3186 C1.3457933,62.3186 0.0025933,63.6617 0.0025933,65.3186 C0.0025933,66.9754 1.3457933,68.3186 3.0025933,68.3186 L47.002593,68.3186 C48.659393,68.3186 50.002593,66.9754 50.002593,65.3186 C50.002593,63.6617 48.659393,62.3186 47.002593,62.3186 L3.0025933,62.3186 Z" id="Shape"></path>
            </g>
        </g>
    </g>
</svg>