<?xml version="1.0" encoding="UTF-8"?>
<svg width="54px" height="70px" viewBox="0 0 54 70" version="1.1" xmlns="http://www.w3.org/2000/svg" xmlns:xlink="http://www.w3.org/1999/xlink">
    <!-- Generator: Sketch 47.1 (45422) - http://www.bohemiancoding.com/sketch -->
    <title>noun_1058475_cc</title>
    <desc>Created with Sketch.</desc>
    <defs></defs>
    <g id="Page-1" stroke="none" stroke-width="1" fill="none" fill-rule="evenodd">
        <g id="noun_1058475_cc" transform="translate(-1.000000, 0.000000)" fill-rule="nonzero" fill="#FFFFFF">
            <g id="Group">
                <path d="M28,32.7 C36.8,32.7 44,25.5 44,16.7 C44,7.9 36.8,0.7 28,0.7 C19.2,0.7 12,7.9 12,16.7 C12,25.5 19.2,32.7 28,32.7 Z M28,4.7 C34.6,4.7 40,10.1 40,16.7 C40,23.3 34.6,28.7 28,28.7 C21.4,28.7 16,23.3 16,16.7 C16,10.1 21.4,4.7 28,4.7 Z" id="Shape"></path>
                <path d="M4.8,69.3 L51.1,69.3 C52.1,69.3 53.2,68.9 53.9,68.1 C54.6,67.3 55,66.2 54.9,65.1 C53.9,49.8 42.3,38.3 27.9,38.3 C13.5,38.3 2,49.9 1,65.2 C0.9,66.3 1.3,67.4 2,68.2 C2.8,68.9 3.8,69.3 4.8,69.3 Z M28,42.3 C40.2,42.3 50.1,52.2 51,65.3 L5,65.3 C5.9,52.2 15.8,42.3 28,42.3 Z" id="Shape"></path>
            </g>
        </g>
    </g>
</svg>