<?xml version="1.0" encoding="UTF-8"?>
<svg width="64px" height="86px" viewBox="0 0 64 86" version="1.1" xmlns="http://www.w3.org/2000/svg" xmlns:xlink="http://www.w3.org/1999/xlink">
    <!-- Generator: Sketch 47.1 (45422) - http://www.bohemiancoding.com/sketch -->
    <title>Oval</title>
    <desc>Created with Sketch.</desc>
    <defs></defs>
    <g id="Page-1" stroke="none" stroke-width="1" fill="none" fill-rule="evenodd">
        <path d="M63.3961437,51.1 C61.6962471,48.1 59.4963809,46.4 56.7965451,45.8 C51.4968675,44.7 45.997202,48.6 44.1973115,49.9 C44.1973115,49.9 44.0973176,49.9 44.0973176,50 L42.6974028,51.2 L42.6974028,6.4 C42.6974028,2.8 39.7975792,0 36.297792,0 C32.7980049,0 29.7981874,2.8 29.7981874,6.4 L29.7981874,25.7 C28.7982482,25.1 27.5983212,24.7 26.2984003,24.7 C23.1985889,24.7 20.6987409,26.8 19.9987835,29.7 C18.9988443,29 17.6989234,28.6 16.2990085,28.6 C14.9990876,28.6 13.7991606,29 12.7992214,29.7 L12.7992214,17.2 C12.7992214,13.7 9.89939783,10.8 6.39961072,10.8 C2.89982361,10.8 2.84217094e-14,13.7 2.84217094e-14,17.2 L2.84217094e-14,55.4 C2.84217094e-14,68.3 2.19986618,73.9 3.79976886,77.9 C4.69971412,80.2 5.39967154,81.9 5.39967154,84.3 C5.39967154,85.1 6.09962897,85.8 6.89958031,85.8 C7.69953165,85.8 8.39948907,85.1 8.39948907,84.3 C8.39948907,81.3 7.59953773,79.2 6.59959855,76.8 C5.09968979,73 2.99981752,67.7 2.99981752,55.4 L2.99981752,17.2 C2.99981752,15.3 4.49972629,13.8 6.39961072,13.8 C8.29949515,13.8 9.79940391,15.3 9.79940391,17.2 L9.79940391,43.4 C9.79940391,43.5 9.79940391,43.7 9.89939783,43.8 L9.89939783,48.5 C9.89939783,52.1 12.7992214,55 16.3990025,55 C18.8988504,55 20.9987227,53.6 22.0986558,51.6 C23.1985889,52.6 24.6984976,53.2 26.2984003,53.2 C29.5981996,53.2 32.3980293,50.7 32.698011,47.4 L32.698011,33.3 C32.698011,33.3 32.698011,33.3 32.698011,33.2 L32.698011,6.4 C32.698011,4.5 34.1979198,3 36.0978042,3 C37.9976886,3 39.4975974,4.5 39.4975974,6.4 L39.4975974,53.6 L30.7981266,60.9 C30.1981631,61.4 30.0981692,62.4 30.5981387,63 C31.0981083,63.6 32.0980475,63.7 32.698011,63.2 L45.7972142,52.2 C47.3971169,51.1 52.096831,47.8 55.9965938,48.6 C57.4965025,48.9 58.7964235,49.8 59.8963566,51.4 L49.7969709,58.6 C49.696977,58.7 49.5969831,58.8 49.4969891,58.8 L42.4974149,66.7 C42.397421,66.8 42.2974271,67 42.1974332,67.2 C41.9974453,67.6 38.4976582,77.9 38.4976582,84.2 C38.4976582,85 39.1976156,85.7 39.997567,85.7 C40.7975183,85.7 41.4974758,85 41.4974758,84.2 C41.4974758,78.9 44.3972994,70.1 44.9972629,68.4 L51.5968614,60.8 L62.8961741,52.9 C63.5961315,52.6 63.7961193,51.8 63.3961437,51.1 Z M16.3990025,51.9 C14.499118,51.9 12.8992154,50.3 12.8992154,48.4 L12.8992154,35 C12.8992154,33.1 14.499118,31.5 16.3990025,31.5 C18.2988869,31.5 19.8987896,33.1 19.8987896,35 L19.8987896,49 C19.5988078,50.6 18.0988991,51.9 16.3990025,51.9 Z M26.2984003,50.1 C24.3985159,50.1 22.7986132,48.5 22.7986132,46.6 L22.7986132,31.1 C22.7986132,29.2 24.3985159,27.6 26.2984003,27.6 C28.1982847,27.6 29.7981874,29.2 29.7981874,31.1 L29.7981874,47.1 C29.4982057,48.8 28.0982908,50.1 26.2984003,50.1 Z" id="Oval" fill="#FFFFFF"></path>
    </g>
</svg>