<?xml version="1.0" encoding="UTF-8"?>
<svg width="45px" height="90px" viewBox="0 0 45 90" version="1.1" xmlns="http://www.w3.org/2000/svg" xmlns:xlink="http://www.w3.org/1999/xlink">
    <!-- Generator: Sketch 47.1 (45422) - http://www.bohemiancoding.com/sketch -->
    <title>Shape</title>
    <desc>Created with Sketch.</desc>
    <defs></defs>
    <g id="Page-1" stroke="none" stroke-width="1" fill="none" fill-rule="evenodd">
        <path d="M43.7,60.3 L43.7,60 C43.3,57.9 43.2,56.9 42.1,54.8 C42.1,54.7 42,54.7 42,54.6 L41.5,53.8 L41.5,37.5 C41.5,33.9 38.6,31.1 35.1,31.1 C33.8,31.1 32.6,31.5 31.6,32.1 L31.6,6 C31.6,2.7 28.9,0 25.6,0 C22.3,0 19.6,2.7 19.6,6 L19.6,33.6 C18.6,33 17.4,32.6 16.2,32.6 C13.2,32.6 10.6,34.7 10,37.5 C9,36.8 7.7,36.4 6.4,36.4 C2.8,36.4 0,39.3 0,42.8 L0,59.4 C0,72.4 2.2,78 3.8,82.1 C4.7,84.4 5.4,86.1 5.4,88.5 C5.4,89.3 6.1,90 6.9,90 C7.7,90 8.4,89.3 8.4,88.5 C8.4,85.5 7.6,83.4 6.6,81 C5.3,77.6 3.5,73.1 3.1,63.8 C4.1,64.4 5.2,64.7 6.4,64.7 C9.4,64.7 12,62.6 12.6,59.8 C13.6,60.5 14.9,60.9 16.2,60.9 C19.8,60.9 22.6,58 22.6,54.5 L22.6,53.5 C24.1,54.1 25.8,54.6 27.3,54.9 L30.7,61.3 C27.6,62.5 25.1,65.4 23.5,69.6 C23.2,70.4 23.6,71.2 24.4,71.5 C25.2,71.8 26,71.4 26.3,70.6 C27.3,67.8 29.4,64.3 33.1,63.7 C33.6,63.6 34,63.3 34.2,62.9 C34.4,62.5 34.4,62 34.2,61.5 L29.7,52.8 C29.5,52.4 29.1,52.1 28.7,52 C25.9,51.3 23.7,50.7 22.2,49.7 C22.1,49.6 21.9,49.4 21.7,49.4 C20,48.1 19.2,46.3 19.6,43.3 L29.7,45.4 C31.2,45.7 32.4,46.4 33.5,47.6 L38.6,55 C38.7,55.1 38.7,55.2 38.8,55.3 L39.5,56.3 C40.3,57.9 40.4,58.6 40.8,60.5 L40.8,60.8 C42.4,71.9 39.8,76.9 37.7,81 C36.5,83.4 35.3,85.6 35.3,88.5 C35.3,89.3 36,90 36.8,90 C37.6,90 38.3,89.3 38.3,88.5 C38.3,86.4 39.2,84.6 40.4,82.4 C42.5,78.2 45.4,72.4 43.7,60.3 Z M22.6,6 C22.6,4.4 23.9,3 25.6,3 C27.3,3 28.6,4.3 28.6,6 L28.6,39.1 C28.6,39.2 28.6,39.3 28.6,39.4 L28.6,42.3 L22.6,41.1 L22.6,6 Z M9.7,58.2 C9.7,60.1 8.2,61.6 6.3,61.6 C4.5,61.6 3,60.2 2.9,58.5 L2.9,58.2 C2.9,58.1 2.9,58 2.9,57.9 L2.9,42.8 C2.9,40.9 4.4,39.4 6.3,39.4 C8.2,39.4 9.7,40.9 9.7,42.8 L9.7,54.4 L9.7,58.2 Z M18.6,40.1 C18.2,40 17.8,40.1 17.5,40.3 C17.2,40.5 16.9,40.9 16.9,41.3 C15.8,46.6 17.3,49.7 19.6,51.6 L19.6,54.4 C19.6,56.3 18.1,57.8 16.2,57.8 C14.3,57.8 12.8,56.3 12.8,54.4 L12.8,42.8 L12.8,39 C12.8,37.1 14.3,35.6 16.2,35.6 C18.1,35.6 19.6,37.1 19.6,39 L19.6,40.3 L18.6,40.1 Z M35.7,45.7 C34.4,44.4 33.1,43.4 31.5,42.9 L31.5,37.5 C31.5,35.6 33,34.1 34.9,34.1 C36.8,34.1 38.3,35.6 38.3,37.5 L38.3,49.6 L35.7,45.9 C35.8,45.8 35.7,45.8 35.7,45.7 Z" id="Shape" fill="#FFFFFF" fill-rule="nonzero" transform="translate(22.106219, 45.000000) rotate(180.000000) translate(-22.106219, -45.000000) "></path>
    </g>
</svg>